<?xml version="1.0" standalone="no"?>
<!DOCTYPE svg PUBLIC "-//W3C//DTD SVG 20010904//EN"
 "http://www.w3.org/TR/2001/REC-SVG-20010904/DTD/svg10.dtd">
<svg version="1.0" xmlns="http://www.w3.org/2000/svg"
 width="100.000000pt" height="100.000000pt" viewBox="0 0 100.000000 100.000000"
 preserveAspectRatio="xMidYMid meet">
<metadata>
Created by potrace 1.14, written by Peter Selinger 2001-2017
</metadata>
<g transform="translate(0.000000,100.000000) scale(0.100000,-0.100000)"
fill="#000000" stroke="none">
<path d="M10 490 c0 -270 3 -490 8 -490 12 0 85 20 115 32 21 8 25 13 15 19
-10 7 -10 9 3 9 8 0 24 7 35 16 18 14 18 15 -4 4 -12 -6 -50 -12 -85 -14 -49
-3 -53 -2 -22 4 36 6 37 7 10 9 -16 1 -37 6 -45 11 -10 7 6 10 54 10 38 0 66
3 62 7 -3 4 6 13 21 19 l28 13 -27 -5 c-30 -7 -135 13 -143 27 -3 5 1 6 9 3 9
-3 24 -3 33 0 15 6 15 8 3 16 -8 6 -19 10 -25 10 -5 0 -3 -5 5 -10 8 -5 11
-10 5 -10 -5 0 -17 5 -25 10 -11 7 -11 10 -2 10 8 0 10 5 5 12 -16 26 -12 38
8 27 11 -5 17 -14 14 -18 -3 -5 2 -12 11 -15 9 -4 13 -2 8 5 -4 8 1 9 17 4 13
-3 20 -3 14 2 -5 5 -30 31 -55 58 -25 27 -33 39 -18 26 16 -14 28 -20 28 -14
0 5 -9 18 -20 28 -11 10 -20 22 -20 28 0 5 19 -12 42 -37 35 -37 46 -44 58
-35 13 9 12 10 -2 5 -13 -4 -28 10 -58 51 -22 31 -40 63 -40 72 1 9 10 -1 21
-22 28 -53 34 -41 9 17 -33 79 -21 76 16 -3 25 -54 37 -72 45 -64 8 8 8 21 1
45 -18 59 -23 88 -13 88 5 0 12 -21 17 -47 l8 -48 7 35 c6 35 6 35 8 5 1 -16
6 -39 11 -50 5 -12 6 5 4 45 -3 46 -1 58 5 40 8 -23 9 -24 10 -3 2 33 19 38
27 7 l7 -27 12 29 12 29 8 -27 c5 -22 10 -25 20 -15 7 7 12 14 12 17 -1 3 1 5
4 5 3 0 14 7 25 15 15 11 16 11 7 0 -17 -18 -17 -35 0 -23 6 6 22 9 34 8 14
-1 19 3 16 12 -3 7 0 13 7 13 6 0 8 -4 5 -10 -9 -15 2 -12 33 7 15 9 4 -4 -24
-30 -28 -25 -51 -53 -51 -61 0 -14 2 -14 18 0 10 9 16 20 14 25 -3 4 -1 10 5
14 5 3 10 1 10 -5 0 -6 18 -1 41 10 22 12 46 19 52 17 6 -2 -14 -15 -44 -29
-33 -15 -56 -32 -56 -41 0 -11 5 -14 16 -8 9 5 50 5 91 1 58 -5 65 -7 30 -9
-25 -1 -56 -8 -69 -15 -22 -12 -19 -13 40 -20 35 -3 68 -11 74 -17 7 -8 0 -10
-25 -5 l-35 5 33 -11 c17 -6 32 -15 32 -20 0 -5 -7 -5 -17 0 -31 16 -75 24
-68 12 3 -5 15 -10 26 -10 11 0 18 -4 14 -9 -3 -5 8 -18 25 -27 16 -10 30 -23
30 -28 0 -6 -5 -5 -12 2 -15 15 -31 16 -22 0 4 -7 3 -8 -5 -4 -6 4 -9 12 -6
17 6 9 -8 13 -32 10 -7 -1 -22 3 -34 10 -16 8 -24 8 -33 -2 -8 -9 -7 -11 6 -6
10 3 24 0 32 -8 7 -8 16 -12 20 -10 3 3 4 2 1 -2 -6 -8 25 -43 38 -43 6 0 2
10 -9 23 l-19 22 22 -19 c13 -10 20 -22 18 -26 -3 -4 9 -25 25 -45 46 -58 36
-56 -16 3 -25 29 -55 57 -67 64 -20 10 -21 10 -8 -5 12 -15 9 -21 -10 -19 -4
1 10 -31 30 -71 21 -40 40 -79 43 -87 3 -8 8 -12 12 -9 4 4 -7 35 -25 70 -19
39 -25 58 -15 50 9 -7 16 -9 16 -3 0 5 -7 15 -15 22 -11 9 -15 9 -15 1 0 -7
-4 -9 -10 -6 -5 3 -10 11 -10 16 0 6 5 7 12 3 7 -5 8 -2 3 7 -5 8 4 3 19 -11
32 -29 61 -75 33 -51 -23 18 -21 9 8 -49 l25 -50 215 0 215 0 0 490 -1 490
-495 0 -494 0 0 -490z m533 73 c-7 -2 -19 -2 -25 0 -7 3 -2 5 12 5 14 0 19 -2
13 -5z m334 -39 c-3 -3 -12 -4 -19 -1 -8 3 -5 6 6 6 11 1 17 -2 13 -5z m-320
-66 c-3 -8 -6 -5 -6 6 -1 11 2 17 5 13 3 -3 4 -12 1 -19z m-460 6 c-3 -3 -12
-4 -19 -1 -8 3 -5 6 6 6 11 1 17 -2 13 -5z m382 2 c-10 -9 -89 -46 -89 -41 0
6 72 44 84 45 5 0 7 -2 5 -4z m51 -16 c0 -5 -7 -10 -16 -10 -8 0 -12 5 -9 10
3 6 10 10 16 10 5 0 9 -4 9 -10z m-437 -37 c3 -16 9 -37 13 -48 4 -11 4 -17 0
-13 -11 9 -37 100 -27 94 5 -3 11 -18 14 -33z m434 1 c-3 -3 -12 -4 -19 -1 -8
3 -5 6 6 6 11 1 17 -2 13 -5z m-47 -9 c0 -2 -15 -8 -32 -13 -18 -6 -42 -13
-53 -16 -11 -4 -2 3 20 14 38 19 65 25 65 15z m69 -19 c-2 -2 -29 -6 -59 -9
-36 -4 -46 -3 -30 3 25 8 97 13 89 6z m-46 -53 c-7 -2 -21 -2 -30 0 -10 3 -4
5 12 5 17 0 24 -2 18 -5z m44 -9 c-3 -3 -12 -4 -19 -1 -8 3 -5 6 6 6 11 1 17
-2 13 -5z m-496 -71 c13 -16 12 -17 -3 -4 -17 13 -22 21 -14 21 2 0 10 -8 17
-17z m67 -140 c-16 -2 -40 -2 -55 0 -16 2 -3 4 27 4 30 0 43 -2 28 -4z m472
-87 c0 -12 -5 -7 -19 24 -11 24 -11 24 3 6 9 -11 16 -24 16 -30z m-462 19 c-9
-9 -98 -22 -98 -14 0 4 17 10 38 12 20 2 43 4 51 5 8 1 12 0 9 -3z"/>
<path d="M315 430 c-4 -6 -10 -8 -15 -5 -13 8 -21 -11 -14 -30 6 -16 8 -16 16
-1 5 9 13 14 17 11 5 -2 16 4 26 15 10 11 15 20 10 20 -4 0 -14 -8 -22 -17
-14 -17 -14 -17 -9 0 6 19 1 23 -9 7z"/>
<path d="M81 324 c-1 -15 28 -39 48 -39 9 0 22 -4 30 -9 8 -5 6 2 -5 19 -16
24 -19 25 -30 11 -10 -15 -13 -14 -27 6 -9 13 -16 18 -16 12z"/>
<path d="M85 160 c-4 -6 6 -10 24 -10 16 0 33 5 36 10 4 6 -6 10 -24 10 -16 0
-33 -4 -36 -10z"/>
<path d="M446 122 c-5 -8 20 -111 29 -120 3 -3 5 3 5 13 0 18 1 18 15 -1 21
-28 19 2 -5 51 l-19 40 5 -35 5 -35 -15 40 c-19 48 -19 48 -4 39 7 -4 8 -3 4
4 -8 14 -13 15 -20 4z"/>
<path d="M393 50 c0 -30 2 -43 4 -28 2 16 2 40 0 55 -2 16 -4 3 -4 -27z"/>
<path d="M361 63 c0 -17 -4 -40 -7 -50 -5 -15 -4 -15 5 -3 9 12 11 13 11 1 0
-8 2 -12 4 -10 2 2 0 24 -4 49 -6 37 -8 40 -9 13z"/>
<path d="M411 48 c-1 -47 18 -70 20 -25 1 21 1 21 9 -3 l8 -25 0 25 c0 14 -3
34 -8 45 l-9 20 -1 -20 c-2 -17 -3 -16 -10 5 -7 20 -8 16 -9 -22z"/>
<path d="M240 65 c-7 -9 -15 -13 -18 -10 -3 3 -11 0 -18 -6 -7 -6 -34 -19 -61
-29 l-48 -19 47 1 c28 0 52 6 59 14 17 21 34 17 18 -3 -13 -16 -12 -17 3 -4
10 7 15 18 12 23 -3 5 2 18 12 29 9 10 15 19 12 19 -3 0 -11 -7 -18 -15z m-25
-25 c-3 -5 -16 -15 -28 -21 -19 -9 -19 -8 3 10 28 23 34 26 25 11z"/>
<path d="M263 37 c-23 -29 -24 -37 -4 -37 12 0 21 5 21 11 0 5 -5 7 -12 3 -7
-4 -8 -3 -4 5 4 6 12 9 17 6 5 -4 9 -2 9 4 0 16 -17 22 -27 8z"/>
<path d="M321 37 c-1 -9 -6 -16 -12 -15 -6 2 -13 -2 -16 -8 -2 -6 3 -11 12
-11 8 0 15 5 15 11 0 6 5 4 10 -4 12 -18 12 -2 0 25 -7 17 -9 17 -9 2z"/>
</g>
</svg>
